<?xml version="1.0"?>
<svg version="1.1" xmlns="http://www.w3.org/2000/svg" width="618" height="147" style=""><path fill="#f2f7fa" d=""/><path fill="#f7f9fa" d="M32.956,103.757l1.185,6.636s3.16,1.659,7.742,1.659c5.056,0,9.559-2.212,9.559-6.399c0-9.243-26.702-5.135-26.702-24.648c0-10.902,8.611-16.748,20.066-16.748c8.927,0,17.38,3.16,17.38,3.16l-0.395,14.378l-7.268,0l-1.975-6.715s-3.555-1.185-6.952-1.185c-5.609,0-8.374,2.449-8.374,5.609c0,9.164,26.623,5.53,26.623,24.095c0,11.85-9.164,18.328-21.33,18.328c-8.927,0-17.617-3.002-17.617-3.002l0-15.168l8.058,0z M97.38129,77.45c12.798,0,19.908,7.742,19.908,21.33c0,14.22-8.295,22.91-21.093,22.91c-12.877,0-20.145-6.715-20.145-21.725c0-14.22,8.453-22.515,21.33-22.515z M96.98629,86.93c-5.767,0-8.69,3.16-8.69,12.64c0,8.69,2.528,12.64,8.295,12.64c5.688,0,8.453-3.555,8.453-13.035c0-8.058-2.37-12.245-8.058-12.245z M161.88558,108.023l3.95,6.952c-1.975,1.738-8.137,6.715-16.985,6.715c-13.035,0-20.54-8.058-20.54-21.488c0-14.062,7.9-22.752,21.725-22.752c6.794,0,13.825,2.765,13.825,2.765l-0.395,12.956l-7.11,0l-1.106-5.609s-2.291-0.632-5.451-0.632c-5.688,0-9.243,3.792-9.243,11.692c0,8.611,3.318,13.588,9.875,13.588c5.53,0,9.006-2.765,11.455-4.187z M180.17487,65.205c0-4.503,3.239-7.11,6.794-7.11c4.108,0,6.636,2.133,6.636,7.11c0,4.661-3.397,7.189-6.636,7.189c-4.266,0-6.794-2.528-6.794-7.189z M193.44687,112.605l5.53,1.975l0,6.32l-23.7,0l0-6.32l6.32-1.975l0-25.675l-6.32-1.975l0-6.32l18.17-0.395l0,34.365z M236.54216,120.9l-1.422-5.135s-6.083,5.925-12.798,5.925c-7.663,0-12.324-4.503-12.324-12.403c0-9.322,7.031-13.035,19.039-13.035l5.53,0l0-4.345c0-4.029-2.133-5.767-6.083-5.767c-4.029,0-6.952,1.185-6.952,1.185l-1.185,4.977l-7.11,0l-0.553-11.692s9.559-3.16,17.143-3.16c12.008,0,16.59,4.187,16.59,15.642l0,19.513l5.925,1.422l0,6.32z M234.56716,102.967l-4.503,0c-6.162,0-8.611,1.58-8.611,5.135c0,3.002,1.659,4.74,4.661,4.74c4.187,0,8.453-4.582,8.453-4.582l0-5.293z M279.63745,112.605l7.11,1.975l0,6.32l-25.359,0l0-6.32l6.32-1.975l0-44.398l-6.32-1.58l0-6.32l18.249-0.632l0,52.93z M333.87174,82.98l-1.817-7.584s-3.713-1.264-8.848-1.264c-8.295,0-13.035,6.162-13.035,19.355c0,12.798,5.135,18.17,13.43,18.17c7.9,0,15.01-5.53,15.01-5.53l4.345,7.11s-8.295,8.611-20.698,8.611c-16.037,0-25.28-9.638-25.28-27.966c0-18.565,10.428-29.625,26.623-29.625c9.559,0,18.407,3.713,18.407,3.713l-0.395,15.01l-7.742,0z M370.17303,78.24l0.711,5.451s5.688-6.241,10.981-6.241c4.345,0,7.347,1.422,7.347,1.422l-0.632,15.168l-7.11,0l-1.185-6.715c-4.582,0-8.532,4.424-8.532,4.424l0,20.856l7.9,1.975l0,6.32l-26.07,0l0-6.32l6.32-1.975l0-25.675l-6.32-1.975l0-6.32z M395.49332,84.955l0-6.32l21.093-0.395l0,6.715l-4.424,0.79l7.031,22.12l6.715-21.883l-4.582-1.027l0-6.32l21.251-0.395l0,6.715l-4.898,1.027l-11.613,32.39c-3.792,10.428-8.927,21.488-21.488,21.488c-2.686,0-7.663-0.632-7.663-0.632l1.106-8.453l5.135,0c6.32,0,9.243-6.715,10.586-9.796l-14.062-34.76z M449.64861,78.635l16.827-0.395l0.711,4.424s5.372-5.214,11.692-5.214c10.981,0,16.432,8.137,16.432,20.935c0,14.615-6.952,23.305-20.777,23.305c-2.291,0-4.661-0.316-6.715-0.79l0,10.033l7.505,1.817l0,6.32l-25.517,0l0-6.32l6.162-1.817l0-44.003l-6.32-1.975l0-6.32z M467.81861,91.275l0,20.145c1.264,0.553,3.16,1.185,6.162,1.185c6.794,0,9.085-4.74,9.085-12.798c0-7.979-2.133-12.877-7.9-12.877c-5.135,0-7.347,4.345-7.347,4.345z M534.7719,110.788l2.844,6.004c-3.871,2.844-8.295,4.898-13.43,4.898c-9.085,0-11.692-6.32-11.692-15.405l0-18.17l-7.347,0l0-7.663l7.347-1.027l0-10.902l11.85-2.133l0,13.035l11.06,0l0,8.69l-11.06,0l0,17.38c0,5.056,0.869,7.11,4.187,7.11c2.133,0,5.214-1.264,6.241-1.817z M567.99219,77.45c12.798,0,19.908,7.742,19.908,21.33c0,14.22-8.295,22.91-21.093,22.91c-12.877,0-20.145-6.715-20.145-21.725c0-14.22,8.453-22.515,21.33-22.515z M567.59719,86.93c-5.767,0-8.69,3.16-8.69,12.64c0,8.69,2.528,12.64,8.295,12.64c5.688,0,8.453-3.555,8.453-13.035c0-8.058-2.37-12.245-8.058-12.245z"/></svg>
